<?xml version="1.0" encoding="UTF-8"?>
<svg id="Layer_1" xmlns="http://www.w3.org/2000/svg" version="1.1" viewBox="0 0 739.83 768">
  <!-- Generator: Adobe Illustrator 29.8.2, SVG Export Plug-In . SVG Version: 2.1.1 Build 3)  -->
  <defs>
    <style>
      .st0 {
        fill: #fff;
      }

      .st1 {
        fill: #0254ec;
      }
    </style>
  </defs>
  <path class="st1" d="M440.15,254.82c-36.76-47.84-54.88-98.47-63.39-142.35-1.46-7.53-12.11-7.76-13.85-.29-9.04,39-25.68,82.8-55.65,125.26-59.93,84.92-144.79,124.29-216.55,142.3-7.43,1.86-7.06,12.46.48,13.84,81.24,14.87,154.95,56.26,206.87,119.84,38.56,47.22,58.05,98.03,67.57,142.29,1.6,7.46,12.2,7.44,13.83,0,10.82-49.41,34.04-107.39,82.15-159.66,57.53-62.51,126.47-90.54,184.5-102.54,7.57-1.56,7.57-12.29,0-13.88-66.25-13.92-146.43-47.32-205.97-124.81Z"/>
  <path class="st0" d="M366.98,276.41c10.21,55.83,20.42,111.67,30.63,167.5,6.07-23.27,12.15-46.55,18.22-69.82,113.69,6.22,170.5,10.12,170.43,11.69-.06,1.54-54.88.84-164.44-2.1-8.41,40-16.82,79.99-25.23,119.99-10.3-59.61-20.61-119.23-30.91-178.84-13.24,52.45-26.48,104.89-39.72,157.34-6.47-28.89-12.95-57.77-19.42-86.66-48.79-2.07-97.59-4.15-146.38-6.22,51.28-.83,102.55-1.66,153.83-2.49,4.2,16.62,8.4,33.24,12.6,49.86,13.46-53.41,26.93-106.82,40.39-160.23Z"/>
</svg>