<?xml version="1.0" encoding="UTF-8"?>
<svg id="Layer_1" xmlns="http://www.w3.org/2000/svg" version="1.1" viewBox="0 0 1366 768">
  <!-- Generator: Adobe Illustrator 29.8.2, SVG Export Plug-In . SVG Version: 2.1.1 Build 3)  -->
  <defs>
    <linearGradient id="premiumGradient" x1="0" y1="0" x2="0" y2="1">
      <stop offset="0%" stop-color="#020817" />
      <stop offset="50%" stop-color="#1e3a8a" />
      <stop offset="100%" stop-color="#2563eb" />
    </linearGradient>
    <style>
      .st0 {
        fill: #fff;
      }

      .st1 {
        fill: url(#premiumGradient);
      }
    </style>
  </defs>
  <path class="st1" d="M342.13,319.01c-15.07-19.62-22.51-40.38-25.99-58.37-.6-3.09-4.97-3.18-5.68-.12-3.71,15.99-10.53,33.95-22.82,51.37-24.58,34.83-59.37,50.97-88.8,58.35-3.05.76-2.89,5.11.2,5.68,33.32,6.1,63.54,23.07,84.83,49.14,15.81,19.36,23.81,40.2,27.71,58.35.66,3.06,5,3.05,5.67,0,4.44-20.26,13.96-44.04,33.69-65.47,23.59-25.63,51.86-37.13,75.66-42.05,3.1-.64,3.1-5.04,0-5.69-27.17-5.71-60.05-19.4-84.46-51.18Z"/>
  <path class="st0" d="M312.13,327.86c4.19,22.9,8.37,45.79,12.56,68.69,2.49-9.54,4.98-19.09,7.47-28.63,46.62,2.55,69.92,4.15,69.89,4.79-.03.63-22.51.35-67.43-.86-3.45,16.4-6.9,32.8-10.35,49.2-4.23-24.45-8.45-48.89-12.68-73.34-5.43,21.51-10.86,43.01-16.29,64.52-2.65-11.85-5.31-23.69-7.96-35.54-20.01-.85-40.02-1.7-60.03-2.55,21.03-.34,42.05-.68,63.08-1.02,1.72,6.82,3.44,13.63,5.17,20.45,5.52-21.9,11.04-43.81,16.56-65.71Z"/>
  <g>
    <path class="st1" d="M512.03,446.33h-11.76l-35.88-105.88h14.9l27.06,79.41,28.23-79.21h10.59l28.23,79.21,27.06-79.41h14.9l-35.88,105.88h-11.76l-27.84-79.02-27.84,79.02Z"/>
    <path class="st1" d="M632.42,316.33c0-5.29,4.51-9.61,9.8-9.61s9.8,4.31,9.8,9.61-4.31,9.61-9.8,9.61-9.8-4.31-9.8-9.61ZM649.28,445.74h-13.92v-105.1h13.92v105.1Z"/>
    <path class="st1" d="M763.01,445.74h-90v-10.2l67.06-81.18h-64.9v-13.73h86.08v10.2l-67.06,81.18h68.82v13.73Z"/>
    <path class="st1" d="M873.99,445.74h-90v-10.2l67.06-81.18h-64.9v-13.73h86.08v10.2l-67.06,81.18h68.82v13.73Z"/>
    <path class="st1" d="M883.2,393.19c0-31.57,22.55-54.51,53.53-54.51,15.29,0,29.61,6.08,39.41,17.06v-15.1h13.92v105.1h-13.92v-15.1c-9.8,10.98-24.12,17.06-39.41,17.06-30.98,0-53.53-22.94-53.53-54.51ZM976.14,393.19c0-23.14-17.06-40.78-39.41-40.78s-39.61,17.06-39.61,40.78,16.47,40.78,39.61,40.78,39.41-17.65,39.41-40.78Z"/>
    <path class="st1" d="M1011.04,316.33c0-5.29,4.51-9.61,9.8-9.61s9.8,4.31,9.8,9.61-4.31,9.61-9.8,9.61-9.8-4.31-9.8-9.61ZM1027.91,445.74h-13.92v-105.1h13.92v105.1Z"/>
    <path class="st1" d="M1047.71,393.19c0-31.57,22.55-54.51,53.53-54.51,15.29,0,29.61,6.08,39.41,17.06v-60.98h13.92v150.98h-13.92v-15.1c-9.8,10.98-24.12,17.06-39.41,17.06-30.98,0-53.53-22.94-53.53-54.51ZM1140.65,393.19c0-23.14-17.06-40.78-39.41-40.78s-39.61,17.06-39.61,40.78,16.47,40.78,39.61,40.78,39.41-17.65,39.41-40.78Z"/>
  </g>
</svg>