<?xml version="1.0" encoding="UTF-8"?>
<svg id="Layer_1" data-name="Layer 1" xmlns="http://www.w3.org/2000/svg" viewBox="0 0 1366 768">
  <defs>
    <style>
      .cls-1 {
        fill: #fff;
      }

      .cls-2 {
        font-family: KrossNeueGrotesk-Bold, 'Kross Neue Grotesk';
        font-size: 45.08px;
        font-weight: 700;
      }

      .cls-2, .cls-3, .cls-4 {
        fill: #0254ec;
      }

      .cls-3 {
        font-family: KrossNeueGrotesk-Book, 'Kross Neue Grotesk';
        font-size: 196.07px;
      }
    </style>
  </defs>
  <path class="cls-4" d="M312.13,341.37c-15.07-19.62-22.51-40.38-25.99-58.37-.6-3.09-4.97-3.18-5.68-.12-3.71,15.99-10.53,33.95-22.82,51.37-24.58,34.83-59.37,50.97-88.8,58.35-3.05.76-2.89,5.11.2,5.68,33.32,6.1,63.54,23.07,84.83,49.14,15.81,19.36,23.81,40.2,27.71,58.35.66,3.06,5,3.05,5.67,0,4.44-20.26,13.96-44.04,33.69-65.47,23.59-25.63,51.86-37.13,75.66-42.05,3.1-.64,3.1-5.04,0-5.69-27.17-5.71-60.05-19.4-84.46-51.18Z"/>
  <path class="cls-1" d="M282.13,350.22c4.19,22.9,8.37,45.79,12.56,68.69,2.49-9.54,4.98-19.09,7.47-28.63,46.62,2.55,69.92,4.15,69.89,4.79-.03.63-22.51.35-67.43-.86-3.45,16.4-6.9,32.8-10.35,49.2-4.23-24.45-8.45-48.89-12.68-73.34-5.43,21.51-10.86,43.01-16.29,64.52-2.65-11.85-5.31-23.69-7.96-35.54-20.01-.85-40.02-1.7-60.03-2.55,21.03-.34,42.05-.68,63.08-1.02,1.72,6.82,3.44,13.63,5.17,20.45,5.52-21.9,11.04-43.81,16.56-65.71Z"/>
  <text class="cls-3" transform="translate(453.6 463.19)"><tspan x="0" y="0">wizzaid</tspan></text>
  <text class="cls-2" transform="translate(1190.17 307.54)"><tspan x="0" y="0">R</tspan></text>
  <path class="cls-4" d="M1205.37,325.26c-18.01,0-32.65-14.65-32.65-32.65s14.65-32.65,32.65-32.65,32.65,14.65,32.65,32.65-14.65,32.65-32.65,32.65ZM1205.37,263.8c-15.88,0-28.8,12.92-28.8,28.8s12.92,28.8,28.8,28.8,28.8-12.92,28.8-28.8-12.92-28.8-28.8-28.8Z"/>
</svg>